{
	"asset":{
		"generator":"Khronos glTF Blender I/O v3.6.27",
		"version":"2.0"
	},
	"scene":0,
	"scenes":[
		{
			"name":"Scene",
			"nodes":[
				0
			]
		}
	],
	"nodes":[
		{
			"mesh":0,
			"name":"BarberShopChair_01.002",
			"translation":[
				-0.011300407350063324,
				0.24165654182434082,
				-0.06826567649841309
			]
		}
	],
	"materials":[
		{
			"doubleSided":true,
			"name":"BarberShopChair_01",
			"normalTexture":{
				"index":0
			},
			"pbrMetallicRoughness":{
				"baseColorTexture":{
					"index":1
				},
				"metallicRoughnessTexture":{
					"index":2
				}
			}
		}
	],
	"meshes":[
		{
			"name":"Mesh.001",
			"primitives":[
				{
					"attributes":{
						"POSITION":0,
						"NORMAL":1,
						"TEXCOORD_0":2
					},
					"indices":3,
					"material":0
				}
			]
		}
	],
	"textures":[
		{
			"sampler":0,
			"source":0
		},
		{
			"sampler":0,
			"source":1
		},
		{
			"sampler":0,
			"source":2
		}
	],
	"images":[
		{
			"mimeType":"image/png",
			"name":"BarberShopChair_01_nor_gl",
			"uri":"BarberShopChair_01_nor_gl.png"
		},
		{
			"mimeType":"image/jpeg",
			"name":"BarberShopChair_01_diff_1k",
			"uri":"BarberShopChair_01_diff_1k.jpg"
		},
		{
			"mimeType":"image/png",
			"name":"BarberShopChair_01_metallic-BarberShopChair_01_roughness",
			"uri":"BarberShopChair_01_metallic-BarberShopChair_01_roughness.png"
		}
	],
	"accessors":[
		{
			"bufferView":0,
			"componentType":5126,
			"count":176666,
			"max":[
				0.35509583353996277,
				1.485136866569519,
				0.8791443109512329
			],
			"min":[
				-0.39364829659461975,
				-5.4581438035938845e-08,
				-0.4417559504508972
			],
			"type":"VEC3"
		},
		{
			"bufferView":1,
			"componentType":5126,
			"count":176666,
			"type":"VEC3"
		},
		{
			"bufferView":2,
			"componentType":5126,
			"count":176666,
			"type":"VEC2"
		},
		{
			"bufferView":3,
			"componentType":5125,
			"count":871104,
			"type":"SCALAR"
		}
	],
	"bufferViews":[
		{
			"buffer":0,
			"byteLength":2119992,
			"byteOffset":0,
			"target":34962
		},
		{
			"buffer":0,
			"byteLength":2119992,
			"byteOffset":2119992,
			"target":34962
		},
		{
			"buffer":0,
			"byteLength":1413328,
			"byteOffset":4239984,
			"target":34962
		},
		{
			"buffer":0,
			"byteLength":3484416,
			"byteOffset":5653312,
			"target":34963
		}
	],
	"samplers":[
		{
			"magFilter":9729,
			"minFilter":9987
		}
	],
	"buffers":[
		{
			"byteLength":9137728,
			"uri":"untitled.bin"
		}
	]
}
